<svg width="10" height="12" viewBox="0 0 10 12" fill="none" xmlns="http://www.w3.org/2000/svg">
<path d="M1.66667 11.3333V10H1C0.811114 10 0.65278 9.93611 0.525003 9.80833C0.397225 9.68056 0.333336 9.52222 0.333336 9.33333C0.333336 9.14444 0.397225 8.98611 0.525003 8.85833C0.65278 8.73056 0.811114 8.66667 1 8.66667H1.66667V7.33333H1C0.811114 7.33333 0.65278 7.26944 0.525003 7.14167C0.397225 7.01389 0.333336 6.85556 0.333336 6.66667C0.333336 6.47778 0.397225 6.31944 0.525003 6.19167C0.65278 6.06389 0.811114 6 1 6H1.66667V0.666667C1.66667 0.477778 1.73056 0.319444 1.85834 0.191667C1.98611 0.0638889 2.14445 0 2.33334 0H6C7.02222 0 7.88889 0.355556 8.6 1.06667C9.31111 1.77778 9.66667 2.64444 9.66667 3.66667C9.66667 4.68889 9.31111 5.55556 8.6 6.26667C7.88889 6.97778 7.02222 7.33333 6 7.33333H3V8.66667H5C5.18889 8.66667 5.34722 8.73056 5.475 8.85833C5.60278 8.98611 5.66667 9.14444 5.66667 9.33333C5.66667 9.52222 5.60278 9.68056 5.475 9.80833C5.34722 9.93611 5.18889 10 5 10H3V11.3333C3 11.5222 2.93611 11.6806 2.80834 11.8083C2.68056 11.9361 2.52222 12 2.33334 12C2.14445 12 1.98611 11.9361 1.85834 11.8083C1.73056 11.6806 1.66667 11.5222 1.66667 11.3333ZM3 6H6C6.64445 6 7.19445 5.77222 7.65 5.31667C8.10556 4.86111 8.33334 4.31111 8.33334 3.66667C8.33334 3.02222 8.10556 2.47222 7.65 2.01667C7.19445 1.56111 6.64445 1.33333 6 1.33333H3V6Z" fill="#AB9C9E"/>
</svg>
