<svg width="16" height="16" viewBox="0 0 16 16" fill="none" xmlns="http://www.w3.org/2000/svg">
<path d="M7.97919 9.20835L2.22919 14.9167C2.07641 15.0695 1.88544 15.1493 1.65627 15.1563C1.42711 15.1632 1.22919 15.0834 1.06252 14.9167C0.909745 14.7639 0.833356 14.5695 0.833356 14.3334C0.833356 14.0972 0.909745 13.9028 1.06252 13.75L9.02086 5.79168C8.77086 5.20835 8.73613 4.54863 8.91669 3.81252C9.09725 3.07641 9.49308 2.41668 10.1042 1.83335C10.8403 1.09724 11.6597 0.666685 12.5625 0.541685C13.4653 0.416685 14.2014 0.638907 14.7709 1.20835C15.3403 1.7778 15.5625 2.51391 15.4375 3.41668C15.3125 4.31946 14.882 5.13891 14.1459 5.87502C13.5625 6.48613 12.9028 6.88196 12.1667 7.06252C11.4306 7.24307 10.7709 7.20835 10.1875 6.95835L9.14586 8.00002L14.8959 13.75C15.0486 13.9028 15.1285 14.0938 15.1354 14.3229C15.1424 14.5521 15.0625 14.75 14.8959 14.9167C14.7431 15.0695 14.5486 15.1459 14.3125 15.1459C14.0764 15.1459 13.882 15.0695 13.7292 14.9167L7.97919 9.20835ZM4.10419 8.37502L1.60419 5.87502C1.02086 5.29168 0.652801 4.55557 0.500023 3.66668C0.347245 2.7778 0.520856 1.98613 1.02086 1.29168C1.17363 1.08335 1.3785 0.965296 1.63544 0.937518C1.89238 0.90974 2.11113 0.993073 2.29169 1.18752L6.77086 5.70835L4.10419 8.37502Z" fill="#584B4D"/>
</svg>
