<svg width="10" height="14" viewBox="0 0 10 14" fill="none" xmlns="http://www.w3.org/2000/svg">
<path d="M1.575 12.3772V11.1515H1C0.787202 11.1515 0.607613 11.0783 0.461235 10.9319C0.314858 10.7855 0.241669 10.6059 0.241669 10.3931C0.241669 10.1803 0.314858 10.0007 0.461235 9.85437C0.607613 9.70799 0.787202 9.6348 1 9.6348H1.575V8.38119H1C0.787202 8.38119 0.607613 8.308 0.461235 8.16162C0.314858 8.01524 0.241669 7.83565 0.241669 7.62285C0.241669 7.41004 0.314858 7.23045 0.461235 7.08407C0.607613 6.93769 0.787202 6.8645 1 6.8645H1.575V1.62285C1.575 1.41004 1.64819 1.23045 1.79457 1.08407C1.94095 0.937691 2.12054 0.864502 2.33334 0.864502H6C7.04614 0.864502 7.93406 1.22936 8.66377 1.95907C9.39348 2.68878 9.75834 3.57671 9.75834 4.62285C9.75834 5.66899 9.39348 6.55691 8.66377 7.28662C7.93406 8.01633 7.04614 8.38119 6 8.38119H3.09167V9.6348H5C5.2128 9.6348 5.39239 9.70799 5.53877 9.85437C5.68515 10.0007 5.75834 10.1803 5.75834 10.3931C5.75834 10.6059 5.68515 10.7855 5.53877 10.9319C5.39239 11.0783 5.2128 11.1515 5 11.1515H3.09167V12.3772C3.09167 12.59 3.01848 12.7696 2.8721 12.916C2.72572 13.0623 2.54614 13.1355 2.33334 13.1355C2.12054 13.1355 1.94095 13.0623 1.79457 12.916C1.64819 12.7696 1.575 12.59 1.575 12.3772ZM3.09167 6.8645H6C6.62054 6.8645 7.14928 6.64602 7.58624 6.20907C8.02319 5.77211 8.24167 5.24337 8.24167 4.62285C8.24167 4.00232 8.02319 3.47357 7.58624 3.03662C7.14928 2.59966 6.62054 2.38118 6 2.38118H3.09167V6.8645Z" fill="#584B4D"/>
</svg>
